<svg width="151" height="64" viewBox="0 0 151 64" fill="none" xmlns="http://www.w3.org/2000/svg">
<path d="M146.758 37.0701L146.04 36.8015L146.758 36.533C147.328 36.3201 147.776 35.8666 147.982 35.2934C148.188 34.7201 148.131 34.0857 147.826 33.5584L146.783 31.7511C146.478 31.2238 145.958 30.8579 145.358 30.7494C145.236 30.7271 145.113 30.716 144.991 30.716C144.513 30.716 144.047 30.8815 143.673 31.189L143.082 31.676L143.208 30.9205C143.254 30.6478 143.242 30.3709 143.179 30.108H145.325C146.467 30.108 147.395 29.1814 147.395 28.0377V3.42275C147.395 2.2791 146.468 1.35249 145.325 1.35249H136.103C135.498 1.35249 134.947 1.61405 134.567 2.03562C134.186 1.61405 133.635 1.35249 133.03 1.35249H123.278C123.194 1.35249 123.112 1.35944 123.032 1.36779C122.951 1.35805 122.869 1.35249 122.785 1.35249H115.193C114.667 1.35249 114.186 1.54866 113.821 1.87284C113.457 1.54866 112.975 1.35249 112.449 1.35249H104.857C104.1 1.35249 103.439 1.76014 103.079 2.36675C102.109 1.70031 100.966 1.35249 99.7301 1.35249H86.503C86.4209 1.35249 86.3402 1.35805 86.2609 1.36779C86.1816 1.35805 86.1009 1.35249 86.0188 1.35249H59.3211C59.2153 1.35249 59.111 1.36362 59.0094 1.37892C58.9079 1.36362 58.8035 1.35249 58.6978 1.35249H42.2136C41.2995 1.35249 40.5259 1.94518 40.2519 2.76744C39.7329 2.35144 39.168 1.98136 38.5531 1.66553C36.8849 0.805705 34.9524 0.368835 32.8112 0.368835C30.6699 0.368835 28.7764 0.76814 27.0372 1.55423C25.2118 2.38066 23.7385 3.61475 22.6588 5.22449C22.6198 5.28153 22.5851 5.33997 22.5475 5.3984L22.1858 3.10136C22.0272 2.09544 21.1604 1.35388 20.1419 1.35388H8.77776C7.75793 1.35388 6.88976 2.09684 6.73254 3.10414L2.88976 27.7219C2.79654 28.3187 2.96906 28.9281 3.3628 29.3873C3.75654 29.8464 4.32976 30.1107 4.93498 30.1107H12.3631C12.2546 30.3083 12.1753 30.5254 12.1364 30.7577L11.5854 33.9869C11.2724 33.7991 10.9078 33.6892 10.5183 33.6892C9.43584 33.6892 8.53567 34.524 8.45498 35.6036L8.19898 39.0054L5.12419 37.5264C4.83619 37.3873 4.53011 37.3219 4.22819 37.3219C3.51028 37.3219 2.81602 37.6961 2.4348 38.357C1.89358 39.2947 2.16628 40.4913 3.06089 41.1007L5.87828 43.0234L3.06089 44.9462C2.16628 45.557 1.89358 46.7535 2.4348 47.6899C2.81602 48.3507 3.51028 48.725 4.22819 48.725C4.53011 48.725 4.83619 48.6582 5.12419 48.5205L8.19898 47.0415L8.45498 50.4433C8.53567 51.5229 9.43584 52.3577 10.5183 52.3577C11.6007 52.3577 12.5009 51.5229 12.5816 50.4433L12.8376 47.0415L15.9124 48.5205C16.2004 48.6596 16.5065 48.725 16.8084 48.725C17.1993 48.725 17.5819 48.6095 17.9131 48.4022V53.6947C17.9131 54.4627 17.8324 54.812 17.7976 54.9247C17.7684 55.022 17.7405 55.0861 17.7225 55.1264C17.4929 55.189 17.2271 55.2391 16.9322 55.2739C15.8442 55.4019 15.0442 56.3563 15.1082 57.4499C15.1722 58.5434 16.0779 59.3991 17.1743 59.3991H25.7906C26.7757 59.3991 27.6049 58.7076 27.8094 57.7727C28.0139 58.7076 28.8432 59.3991 29.8282 59.3991H38.4445C39.2543 59.3991 39.9597 58.933 40.2992 58.2485C40.647 58.9511 41.3649 59.3991 42.1538 59.3991H50.8425C50.8425 59.3991 50.8508 59.3991 50.855 59.3991H52.8223C53.9339 59.3991 54.8466 58.5226 54.8898 57.4123C54.9343 56.3021 54.0939 55.3546 52.9865 55.2669C52.5858 55.2349 52.2212 55.1876 51.8957 55.1278C51.8915 55.0165 51.8915 54.862 51.9068 54.6603C51.9416 54.2123 52.0877 53.34 52.5844 51.7372L52.6762 51.4492C53.607 51.7622 54.6463 51.932 55.7259 51.932C56.6637 51.932 57.5778 51.8026 58.4167 51.5605C59.2056 53.5584 60.0028 55.0652 60.8724 56.2172C62.2331 58.0203 63.7579 59.4909 65.4039 60.5887C67.0512 61.6864 68.8 62.4808 70.6018 62.9483C72.3506 63.4033 74.0939 63.6328 75.7871 63.6328C76.8348 63.6328 77.8671 63.5549 78.8578 63.4019C79.8275 63.2516 80.7527 63.0499 81.6084 62.8008C82.6421 62.5017 83.2724 61.461 83.0609 60.4064L83.0233 60.2186C82.9732 59.9709 82.8772 59.7386 82.7465 59.5299C83.3503 59.6579 83.9722 59.7372 84.6108 59.7581C84.7708 59.7636 84.9266 59.7664 85.0783 59.7664C86.5211 59.7664 87.7718 59.5382 88.8223 59.0902C89.1395 59.2864 89.5124 59.4005 89.9103 59.4005H103.574C104.294 59.4005 104.942 59.029 105.315 58.4488C106.733 59.2488 108.338 59.7038 110.059 59.7594C110.219 59.765 110.375 59.7678 110.527 59.7678C111.637 59.7678 112.634 59.6328 113.514 59.3671C113.635 59.3894 113.757 59.4019 113.884 59.4019H122.5C123.31 59.4019 124.015 58.9358 124.355 58.2513C124.703 58.9539 125.421 59.4019 126.209 59.4019H134.898C135.989 59.4019 136.892 58.556 136.963 57.468C137.034 56.38 136.249 55.4227 135.167 55.2808C131.411 54.7869 128.312 51.413 126.799 49.4443C126.023 48.4356 125.383 47.4464 124.868 46.5476C125.855 46.9469 126.755 47.3003 127.258 47.4728C127.861 47.6787 128.569 47.7873 129.306 47.7873H129.407C131.405 47.7608 133.105 46.9636 134.07 45.6015C134.502 44.9949 134.909 44.0975 134.943 42.8648C135.046 42.8801 135.15 42.8899 135.253 42.8899C135.73 42.8899 136.196 42.7243 136.57 42.4168L137.162 41.9285L137.035 42.684C136.935 43.2836 137.103 43.8986 137.497 44.3633C137.891 44.828 138.468 45.0965 139.078 45.0965H141.165C141.774 45.0965 142.351 44.828 142.745 44.3633C143.139 43.8986 143.307 43.2836 143.207 42.684L143.08 41.9285L143.672 42.4154C144.046 42.7243 144.512 42.8885 144.989 42.8885C145.112 42.8885 145.236 42.8774 145.357 42.8551C145.956 42.7466 146.477 42.3807 146.781 41.8534L147.825 40.0461C148.129 39.5187 148.186 38.8843 147.981 38.3111C147.775 37.7379 147.327 37.2843 146.756 37.0714L146.758 37.0701ZM15.5158 36.5664C15.6383 36.124 15.8706 35.6579 16.2073 35.1807C16.512 34.7466 16.9711 34.3445 17.568 33.9827C17.671 33.9201 17.7865 33.8645 17.9145 33.8144V37.6447C17.5833 37.436 17.2021 37.3219 16.8098 37.3219C16.5078 37.3219 16.2018 37.3887 15.9138 37.5264L15.1263 37.9048C15.2292 37.5765 15.3572 37.1368 15.5158 36.5664ZM15.1597 43.0234L17.9145 41.1438V44.9031L15.1597 43.0234Z" fill="white"/>
<path d="M48.7633 35.0261V33.1798C48.7633 33.0685 48.7786 32.8974 48.8092 32.6692C48.8398 32.4411 48.9149 32.2115 49.0346 31.9792C49.1556 31.7552 49.3365 31.5576 49.5772 31.3851C49.8179 31.2125 50.1532 31.1263 50.5845 31.1263C51.0158 31.1263 51.34 31.2125 51.5848 31.3851C51.8297 31.5576 52.0134 31.7552 52.133 31.9792C52.2541 32.2115 52.3292 32.4425 52.3584 32.6692C52.389 32.8974 52.4029 33.0672 52.4029 33.1798V38.5767C52.4029 38.7492 52.3904 38.9621 52.364 39.2153C52.3375 39.4699 52.2652 39.712 52.1441 39.9444C52.0231 40.1851 51.8422 40.3924 51.6015 40.5635C51.3608 40.736 51.02 40.8223 50.5817 40.8223C50.1434 40.8223 49.8026 40.736 49.5619 40.5635C49.3212 40.391 49.1403 40.1851 49.0193 39.9444C48.8982 39.712 48.8259 39.4685 48.7994 39.2153C48.773 38.9621 48.7605 38.7478 48.7605 38.5767V37.9826H50.1546C50.1546 38.3012 50.1587 38.5656 50.1671 38.7771C50.1754 38.9885 50.1935 39.1541 50.2186 39.2738C50.2617 39.4978 50.3814 39.6091 50.5803 39.6091C50.7528 39.6091 50.8683 39.527 50.9295 39.3642C50.981 39.1917 51.0074 38.9301 51.0074 38.5767V36.7945C50.8864 36.864 50.7709 36.9197 50.6582 36.9628C50.5469 37.0059 50.4301 37.0268 50.309 37.0268C49.9473 37.0268 49.6634 36.9475 49.4561 36.7875C49.2502 36.6289 49.0944 36.4411 48.9914 36.2254C48.8885 36.0098 48.8231 35.7885 48.7981 35.5604C48.7716 35.3322 48.7591 35.1541 48.7591 35.0247L48.7633 35.0261ZM51.0102 35.5562V32.7666C51.0102 32.7068 50.9796 32.6205 50.9198 32.5078C50.86 32.3965 50.7473 32.3395 50.5845 32.3395C50.4384 32.3395 50.3299 32.3952 50.2617 32.5078C50.1921 32.6192 50.1587 32.7054 50.1587 32.7666V35.5172C50.1587 35.5771 50.1935 35.6633 50.2617 35.776C50.3299 35.8873 50.4384 35.9444 50.5845 35.9444C50.7306 35.9444 50.8363 35.8971 50.9003 35.8025C50.9643 35.7078 51.0019 35.6258 51.0102 35.5576V35.5562Z" fill="black"/>
<path d="M23.0174 53.6947C23.0174 54.4696 23.0856 55.0804 23.2234 55.5298C23.3597 55.9792 23.5475 56.3298 23.7854 56.5789C24.022 56.8293 24.3155 57.0032 24.6661 57.1034C25.0154 57.2036 25.3896 57.2787 25.7903 57.3274H17.174C17.5983 57.2773 17.9851 57.2022 18.3357 57.1034C18.6849 57.0032 18.9785 56.8293 19.2164 56.5789C19.4529 56.3298 19.6407 55.9792 19.7785 55.5298C19.9148 55.0804 19.9844 54.4683 19.9844 53.6947V31.4422H19.9468C18.4985 31.4422 17.3493 31.6982 16.5006 32.2102C15.6519 32.7222 14.9896 33.3149 14.5152 33.9896C14.0407 34.6644 13.7096 35.3378 13.5218 36.0126C13.334 36.6874 13.1907 37.1743 13.0905 37.4735L14.1771 31.1055H28.7872L29.9114 37.4735C29.8112 37.1743 29.6609 36.6874 29.462 36.0126C29.2616 35.3378 28.9305 34.6644 28.4686 33.9896C28.0067 33.3149 27.3444 32.7222 26.4832 32.2102C25.622 31.6982 24.4783 31.4422 23.055 31.4422H23.0174V53.6947Z" fill="black"/>
<path d="M80.7938 31.1263C80.0341 31.2 79.4039 31.3169 78.903 31.4755C78.4007 31.6355 77.9931 31.9193 77.6133 32.3729C77.2334 32.8265 76.8731 33.4623 76.5294 34.2832C76.1858 35.104 75.7948 36.199 75.3538 37.5708L69.1472 57.3301C69.1472 57.3301 61.3364 33.4887 61.0679 33.0352C60.798 32.583 60.4807 32.2212 60.1134 31.9513C59.7461 31.6828 59.3232 31.5131 58.8334 31.4032C58.3437 31.2932 57.7441 31.2014 57.0345 31.1277H67.5013C66.2769 31.2501 65.463 31.6021 65.072 32.2268C64.6797 32.8515 64.6797 33.824 65.072 35.1472L70.3604 52.5551L75.1353 37.2397C75.5764 35.8205 75.8338 34.7117 75.9061 33.9158C75.9799 33.12 75.9061 32.5204 75.6863 32.1155C75.4665 31.712 75.0894 31.4755 74.6247 31.3656C74.1587 31.2557 73.6091 31.1764 72.9719 31.1263H80.7952H80.7938Z" fill="black"/>
<path d="M103.788 53.7836C100.616 57.337 94.3288 55.8108 94.3288 55.8108V34.7575C94.3288 33.984 94.3803 33.3732 94.486 32.9238C94.5904 32.4744 94.7379 32.1252 94.9271 31.8761C95.1163 31.6271 95.3445 31.4518 95.6102 31.3516C95.876 31.2528 96.1612 31.1777 96.4645 31.1276H89.9114C90.2342 31.1777 90.5278 31.2528 90.7949 31.3516C91.0607 31.4518 91.2833 31.6271 91.4641 31.8761C91.6436 32.1252 91.7869 32.4744 91.8913 32.9238C91.9956 33.3732 92.0485 33.9854 92.0485 34.7575V53.6974C92.0485 54.4709 91.9956 55.0817 91.8913 55.5311C91.7869 55.9805 91.6436 56.3297 91.4641 56.5788C91.2833 56.8278 91.0607 57.0031 90.7949 57.1033C90.5292 57.2034 90.2342 57.2786 89.9114 57.3273H103.575L104.3 54.5683C104.119 54.3179 103.948 54.0549 103.788 53.7822V53.7836Z" fill="black"/>
<path d="M86.0919 35.5908C86.0919 35.5908 87.5931 35.1887 87.9549 33.8837C88.2136 32.9515 87.2425 31.0092 84.5587 31.0552C83.3677 31.076 79.4498 31.1818 79.3469 34.0284C79.2439 36.875 80.7298 38.2858 87.351 41.9588C87.351 41.9588 81.2237 38.2301 80.3458 45.8892C79.4679 53.5484 82.366 57.7404 85.4199 56.9126C88.4738 56.0847 87.3343 43.5602 87.3343 43.5602C87.3343 43.5602 84.1775 43.4572 83.9702 48.011C83.9702 48.011 83.6084 41.6972 87.8519 41.956C87.8519 41.956 88.1469 55.5324 90.2686 54.0826C90.2686 54.0826 90.398 57.8739 84.6783 57.6875C77.6049 57.4579 74.3368 48.9766 77.5521 43.9219C79.3455 41.1032 82.6846 40.8402 82.6846 40.8402C82.6846 40.8402 75.1855 37.419 77.9152 32.5884C78.9503 30.756 82.7889 30.4179 85.9903 30.6392C88.7396 30.8298 90.6651 32.5369 90.3006 34.1272C89.8303 36.1724 86.0933 35.5894 86.0933 35.5894L86.0919 35.5908Z" fill="black"/>
<path d="M111.542 35.5909C111.542 35.5909 113.043 35.1888 113.405 33.8838C113.664 32.9516 112.692 31.0094 110.009 31.0553C108.818 31.0761 104.9 31.1819 104.797 34.0285C104.694 36.8751 106.18 38.2859 112.801 41.9589C112.801 41.9589 106.674 38.2302 105.796 45.8894C104.918 53.5485 107.816 57.7405 110.87 56.9127C113.924 56.0848 112.784 43.5603 112.784 43.5603C112.784 43.5603 110.081 43.4713 109.513 47.0678C109.467 47.3572 109.435 47.6702 109.42 48.0097C109.42 48.0097 109.398 47.6104 109.43 47.0177C109.529 45.2507 110.124 41.7614 113.3 41.9547C113.3 41.9547 113.595 55.5311 115.717 54.0814C115.717 54.0814 115.847 57.8727 110.127 57.6862C103.054 57.4567 99.7853 48.9753 103.001 43.9207C104.794 41.1019 108.133 40.8389 108.133 40.8389C108.133 40.8389 100.634 37.4177 103.364 32.5871C104.399 30.7547 108.238 30.4167 111.439 30.6379C114.188 30.8285 116.114 32.5356 115.749 34.1259C115.279 36.1711 111.542 35.5881 111.542 35.5881V35.5909Z" fill="black"/>
<path d="M42.155 57.3288L35.6367 42.6992V53.6947C35.6367 54.4696 35.7049 55.0804 35.8426 55.5298C35.979 55.9792 36.1738 56.3298 36.4228 56.5789C36.6718 56.8293 36.9724 57.0032 37.3216 57.1034C37.6708 57.2036 38.0451 57.2787 38.4458 57.3274H29.8294C30.2538 57.2773 30.6405 57.2022 30.9911 57.1034C31.3404 57.0032 31.6339 56.8293 31.8718 56.5789C32.1084 56.3298 32.2962 55.9792 32.4339 55.5298C32.5703 55.0804 32.6398 54.4683 32.6398 53.6947V34.7396C32.6398 33.966 32.5703 33.3538 32.4339 32.9044C32.2962 32.455 32.1098 32.1058 31.8718 31.8554C31.6339 31.6063 31.3404 31.431 30.9911 31.3309C30.6405 31.2307 30.2538 31.1569 29.8294 31.1055H37.8085C38.9578 31.2126 40.2906 31.8443 41.636 32.6943C44.1487 34.2832 47.4489 37.774 48.4896 40.878C50.0715 45.6001 45.643 46.1135 43.8746 45.511C42.4054 45.0102 37.1268 42.7702 37.1268 42.7702C37.1254 45.1757 42.8743 56.2825 50.8451 57.3288C50.8451 57.3288 42.9299 57.3288 42.1564 57.3288H42.155ZM35.6367 42.3625H36.6565C38.0548 42.3625 45.0461 46.3082 46.1953 43.6328C47.4252 40.7653 42.2162 34.2095 41.2673 33.3483C40.3184 32.487 39.2082 31.4436 37.8099 31.4436H37.7348C37.3605 31.4436 37.035 31.4756 36.7609 31.5368C36.4854 31.5994 36.267 31.7427 36.1056 31.9681C35.9428 32.1935 35.8245 32.5107 35.7494 32.9239C35.6743 33.3357 35.6367 33.8922 35.6367 34.5907V42.3639V42.3625Z" fill="black"/>
<path d="M41.8266 36.1504C42.2231 37.4346 43.2276 38.4405 44.5118 38.8356C43.2276 39.2321 42.2217 40.2367 41.8266 41.5208C41.4301 40.2367 36.5354 38.8356 34.5027 38.8356C36.6175 38.8356 41.4314 37.4346 41.8266 36.1504Z" fill="black"/>
<path d="M80.9943 60.6247C80.4948 60.7499 79.9508 60.8556 79.365 60.9433C78.7779 61.0309 78.1602 61.074 77.5104 61.074C76.261 61.074 74.9254 60.8807 73.5021 60.4939C72.0788 60.1057 70.6861 59.4198 69.3254 58.4333C67.9633 57.4469 66.6903 56.1113 65.5049 54.425C62.6916 50.4264 61.5299 45.6793 60.0816 41.081C59.0548 37.8212 58.028 34.5614 56.9998 31.3015C56.9817 31.2431 56.9636 31.1847 56.9442 31.1262H54.8238L51.6405 45.3467C51.1369 45.8059 50.8433 46.354 50.8433 46.944C50.8433 47.2584 50.9282 47.5603 51.0812 47.8441L50.4259 50.7728C49.9765 52.1725 49.5772 53.2897 49.2266 54.1259C48.876 54.9634 48.5087 55.6048 48.1219 56.0556C47.7337 56.505 47.2843 56.8111 46.7737 56.9739C46.2617 57.1367 45.6176 57.2549 44.844 57.33H52.8231C52.1984 57.28 51.6433 57.1993 51.1563 57.0866C50.6694 56.9739 50.3132 56.7179 50.0892 56.3186C49.8638 55.9193 49.7831 55.314 49.8457 54.5015C49.9083 53.6904 50.1643 52.5593 50.6137 51.1109L51.3261 48.8626L51.4388 48.5259L51.4819 48.3853C52.3223 49.266 53.9083 49.8601 55.7268 49.8601C57.299 49.8601 58.6958 49.4163 59.589 48.7276C60.3779 51.0594 61.3351 53.3885 62.5261 54.9676C63.7504 56.5899 65.0916 57.8893 66.5539 58.8633C68.0148 59.8372 69.5383 60.53 71.1243 60.9419C72.7104 61.3537 74.2645 61.5596 75.788 61.5596C76.7369 61.5596 77.6551 61.49 78.5414 61.3537C79.4277 61.216 80.2583 61.0351 81.0332 60.8111L80.9956 60.6233L80.9943 60.6247ZM55.7268 48.21C53.7929 48.21 52.2249 47.2737 52.2249 46.1189C52.2249 46.066 52.2318 46.0146 52.2374 45.9645L52.3821 45.4998C52.8078 44.6803 54.053 44.0765 55.5459 44.032C54.4426 44.0556 53.4339 44.2991 52.6353 44.6887L55.5209 35.4504L58.2548 44.4507C57.5647 44.2017 56.7647 44.05 55.9076 44.032C56.8746 44.0612 57.7358 44.3255 58.3396 44.7304L58.8002 46.2483L58.8461 46.4C58.8934 46.5572 58.9421 46.7144 58.9908 46.873C58.4843 47.6549 57.2155 48.2114 55.7268 48.2114V48.21Z" fill="black"/>
<path d="M55.7266 45.8073C55.4636 45.8073 55.2507 46.0202 55.2507 46.2831C55.2507 46.5461 55.4636 46.759 55.7266 46.759C55.9895 46.759 56.2024 46.5461 56.2024 46.2831C56.2024 46.0202 55.9895 45.8073 55.7266 45.8073Z" fill="black"/>
<path d="M126.212 57.3287C126.985 57.3287 134.9 57.3287 134.9 57.3287C126.93 56.281 121.181 45.1756 121.182 42.7701C121.182 42.7701 126.459 45.0101 127.93 45.5109C128.317 45.6431 128.831 45.721 129.382 45.7141C131.35 45.6876 133.783 44.5676 132.546 40.8793C131.506 37.7753 128.205 34.2845 125.693 32.6956C124.347 31.8455 123.014 31.2125 121.865 31.1068H113.886C114.31 31.1568 114.697 31.232 115.048 31.3321C115.397 31.4323 115.691 31.6076 115.928 31.8567C116.165 32.1071 116.353 32.4563 116.491 32.9057C116.627 33.3551 116.696 33.9673 116.696 34.7408V53.696C116.696 54.4709 116.627 55.0817 116.491 55.5311C116.353 55.9805 116.166 56.3311 115.928 56.5801C115.691 56.8306 115.397 57.0045 115.048 57.1047C114.697 57.2048 114.31 57.28 113.886 57.3287H122.502C122.103 57.2786 121.727 57.2034 121.378 57.1047C121.028 57.0045 120.728 56.8306 120.479 56.5801C120.229 56.3311 120.036 55.9805 119.899 55.5311C119.762 55.0817 119.693 54.4695 119.693 53.696V42.7005L126.212 57.3301V57.3287ZM119.693 34.5892C119.693 33.8908 119.731 33.3342 119.806 32.9224C119.881 32.5106 119.999 32.192 120.162 31.9666C120.325 31.7412 120.542 31.5979 120.818 31.5353C120.834 31.5311 120.854 31.5283 120.876 31.5241C121.516 31.417 121.993 31.7384 122.31 32.2741C122.636 32.8236 122.868 33.4511 123.113 34.0382C123.432 34.7965 123.741 35.5589 124.061 36.3158C124.58 37.5485 125.099 38.7812 125.618 40.0125L126.943 43.161C127.078 43.481 127.213 43.801 127.348 44.121C127.362 44.1544 127.461 44.4702 127.497 44.4758C124.99 44.0751 121.636 42.3596 120.713 42.3596H119.693V34.5864V34.5892Z" fill="black"/>
<path d="M69.1893 36.1972C69.3758 36.7996 69.8474 37.2713 70.4499 37.4577C69.8474 37.6442 69.3758 38.1158 69.1893 38.7182C69.0029 38.1158 66.7059 37.4577 65.7514 37.4577C66.7434 37.4577 69.0029 36.7996 69.1893 36.1972Z" fill="black"/>
<path d="M71.7109 36.1974C71.1085 36.3838 70.6368 36.8555 70.4504 37.4579C70.2639 36.8555 69.7923 36.3838 69.1898 36.1974C69.7923 36.0109 70.4504 33.7139 70.4504 32.7595C70.4504 33.7515 71.1085 36.0109 71.7109 36.1974Z" fill="black"/>
<path d="M71.7105 38.7182C71.5241 38.1158 71.0524 37.6442 70.45 37.4577C71.0524 37.2713 71.5241 36.7996 71.7105 36.1972C71.897 36.7996 74.194 37.4577 75.1484 37.4577C74.1564 37.4577 71.897 38.1158 71.7105 38.7182Z" fill="black"/>
<path d="M69.1898 38.7185C69.7923 38.532 70.2639 38.0604 70.4504 37.4579C70.6368 38.0604 71.1085 38.532 71.7109 38.7185C71.1085 38.9049 70.4504 41.2019 70.4504 42.1564C70.4504 41.1644 69.7923 38.9049 69.1898 38.7185Z" fill="black"/>
<path d="M140.124 36.8027L139.08 43.0232H141.167L140.124 36.8027Z" fill="black"/>
<path d="M140.124 36.8027L144.989 40.8166L146.034 39.0093L140.124 36.8027Z" fill="black"/>
<path d="M140.124 36.8027L146.034 34.5947L144.989 32.7874L140.124 36.8027Z" fill="black"/>
<path d="M140.124 36.8027L141.167 30.5807H139.08L140.124 36.8027Z" fill="black"/>
<path d="M140.124 36.8027L135.257 32.7874L134.214 34.5947L140.124 36.8027Z" fill="black"/>
<path d="M140.124 36.8027L134.214 39.0093L135.257 40.8166L140.124 36.8027Z" fill="black"/>
<path d="M10.5193 35.7591L11.0035 42.1841L16.8108 39.3918L11.4877 43.0231L16.8108 46.6558L11.0035 43.8621L10.5193 50.2885L10.0351 43.8621L4.22784 46.6558L9.55098 43.0231L4.22784 39.3918L10.0351 42.1841L10.5193 35.7591Z" fill="black"/>
<path d="M24.0182 28.0403H15.8582L15.5465 24.8236H13.0589L12.7472 28.0403H4.93503L8.77781 3.42255H20.1392L24.0182 28.0403ZM13.1242 24.1794H15.4825L15.5006 24.146C15.3907 23.0079 15.047 19.5338 14.8147 17.0281C14.5823 14.5224 14.4126 12.7012 14.3027 11.5631H14.2846C14.1747 12.7012 14.0035 14.5224 13.7726 17.0281C13.5402 19.5338 13.2035 23.0093 13.1062 24.146C13.1062 24.1683 13.1117 24.1794 13.1242 24.1794Z" fill="black"/>
<path d="M24.376 6.37628C25.2414 5.08515 26.4129 4.10706 27.8891 3.43924C29.3653 2.77141 31.0056 2.4375 32.8101 2.4375C34.6147 2.4375 36.2244 2.79367 37.6032 3.50463C38.982 4.21559 40.0491 5.22846 40.8046 6.54046C41.56 7.85385 41.9385 9.38567 41.9385 11.1359C41.9385 11.5519 41.9079 12.0542 41.8467 12.6455L34.5103 13.2368C36.4734 13.3467 38.0261 13.6792 39.167 14.2385C40.3079 14.7965 41.1246 15.5895 41.6185 16.6177C42.1124 17.6458 42.36 18.9592 42.36 20.5565C42.36 22.3512 41.9357 23.8831 41.0884 25.1519C40.2411 26.4208 39.0877 27.3836 37.631 28.0403C36.1729 28.697 34.5354 29.0253 32.7183 29.0253C29.7298 29.0253 27.3827 28.2587 25.6741 26.7283C23.967 25.1965 23.1127 22.8549 23.1127 19.7036C23.1127 19.3098 23.1183 19.0149 23.1308 18.8173L30.6508 17.8991C27.8696 17.7015 25.912 17.0184 24.7781 15.8469C23.6442 14.6768 23.0766 13.0629 23.0766 11.0052C23.0766 9.21037 23.5093 7.6688 24.376 6.37628ZM30.8887 18.5544C30.8887 19.2765 31.0738 19.8344 31.4467 20.2281C31.8181 20.6218 32.2856 20.8194 32.8463 20.8194C33.3458 20.8194 33.7548 20.6831 34.072 20.409C34.3893 20.1363 34.5479 19.7356 34.5479 19.2111C34.5479 18.6865 34.4101 18.3749 34.136 18.2093C33.862 18.0452 33.414 17.9631 32.7907 17.9631H32.3329L30.943 17.9297C30.9068 18.1481 30.8887 18.3568 30.8887 18.553V18.5544ZM34.2919 13.2368C34.3406 12.9961 34.3656 12.7443 34.3656 12.4813C34.3656 11.8469 34.1945 11.3655 33.8536 11.0372C33.5114 10.7088 33.0731 10.5446 32.536 10.5446C32.0602 10.5446 31.6734 10.6921 31.3743 10.9885C31.0752 11.2834 30.9263 11.6618 30.9263 12.121C30.9263 12.5147 31.0334 12.7944 31.2463 12.9572C31.4592 13.1213 31.8167 13.2034 32.3162 13.2034H32.774C33.4696 13.2034 33.9747 13.2145 34.2919 13.2368Z" fill="black"/>
<path d="M58.6965 12.658H54.2874C54.2624 12.658 54.2512 12.6803 54.2512 12.7234V28.0403H46.6589V12.7234C46.6589 12.6803 46.6464 12.658 46.6227 12.658H42.2137V3.42255H58.6979V12.658H58.6965Z" fill="black"/>
<path d="M66.7299 11.6939V13.4984C66.7299 13.5429 66.7354 13.5638 66.748 13.5638H85.7435V18.1912H66.748C66.7354 18.1912 66.7299 18.2135 66.7299 18.2566V20.0945H86.1274V28.0375H59.3198V3.42255H86.0175V11.6939H66.7299Z" fill="black"/>
<path d="M102.346 4.42429C103.065 5.09211 103.608 5.96724 103.973 7.04968C104.339 8.13211 104.523 9.29803 104.523 10.5446C104.523 11.858 104.324 13.0949 103.929 14.2539C103.532 15.4142 102.941 16.3547 102.154 17.0768C101.368 17.7989 100.419 18.1606 99.3084 18.1606H97.9547V18.2914H102.108L104.925 28.0403H96.235L94.0938 17.9965H96.2155C96.6788 17.9965 97.042 17.7669 97.3035 17.3078C97.5651 16.8486 97.6973 16.3116 97.6973 15.6994C97.6973 15.0872 97.5665 14.5502 97.3035 14.0911C97.0406 13.6319 96.6788 13.4024 96.2155 13.4024H94.13C94.1049 13.4024 94.0938 13.4246 94.0938 13.4678V28.0417H86.5014V3.42255H99.7286C100.753 3.42255 101.625 3.75646 102.344 4.42429H102.346Z" fill="black"/>
<path d="M104.857 3.42255H112.449V23.7815C112.449 24.3951 112.587 24.8765 112.861 25.2257C113.135 25.5763 113.455 25.7502 113.821 25.7502C114.187 25.7502 114.522 25.5805 114.791 25.2424C115.06 24.9029 115.193 24.4271 115.193 23.8149V3.42255H122.785V18.9481C122.785 21.0935 122.361 22.9258 121.514 24.4465C120.666 25.9672 119.559 27.1109 118.193 27.8775C116.826 28.6427 115.368 29.0267 113.82 29.0267C112.271 29.0267 110.813 28.6441 109.447 27.8775C108.081 27.1123 106.975 25.9686 106.126 24.4465C105.279 22.9258 104.854 21.0935 104.854 18.9481V3.42255H104.857Z" fill="black"/>
<path d="M145.326 28.0403H138.282V14.3861C138.282 14.3652 138.277 14.3527 138.264 14.3527C138.252 14.3527 138.246 14.3638 138.246 14.3861L136.453 28.0403H131.788L129.994 14.4835C129.994 14.4626 129.989 14.4501 129.976 14.4501C129.964 14.4501 129.958 14.4612 129.958 14.4835V28.0403H123.28V3.42261H133.031L134.605 15.6007C134.605 15.623 134.611 15.6341 134.623 15.6341C134.636 15.6341 134.641 15.623 134.641 15.6007L136.105 3.42261H145.326V28.0403Z" fill="black"/>
</svg>
