<svg width="48" height="48" viewBox="0 0 48 48" fill="none" xmlns="http://www.w3.org/2000/svg">
<circle cx="24" cy="24" r="23" stroke="white" stroke-width="2"/>
<path d="M39.5 24C39.5 30.4512 37.7006 36.2479 34.8432 40.404C31.9828 44.5646 28.1322 47 24 47C19.8678 47 16.0172 44.5646 13.1568 40.404C10.2994 36.2479 8.5 30.4512 8.5 24C8.5 17.5488 10.2994 11.7521 13.1568 7.59597C16.0172 3.43537 19.8678 1 24 1C28.1322 1 31.9828 3.43537 34.8432 7.59597C37.7006 11.7521 39.5 17.5488 39.5 24Z" stroke="white" stroke-width="2"/>
<path d="M30.5 24C30.5 30.555 29.6684 36.4498 28.3488 40.6723C27.6872 42.7895 26.9201 44.4301 26.115 45.5197C25.2955 46.6289 24.5693 47 24 47C23.4307 47 22.7045 46.6289 21.885 45.5197C21.0799 44.4301 20.3128 42.7895 19.6512 40.6723C18.3316 36.4498 17.5 30.555 17.5 24C17.5 17.445 18.3316 11.5502 19.6512 7.32771C20.3128 5.2105 21.0799 3.56989 21.885 2.48028C22.7045 1.37109 23.4307 1 24 1C24.5693 1 25.2955 1.37109 26.115 2.48028C26.9201 3.56989 27.6872 5.2105 28.3488 7.32771C29.6684 11.5502 30.5 17.445 30.5 24Z" stroke="white" stroke-width="2"/>
<circle cx="24" cy="24" r="23" transform="rotate(90 24 24)" stroke="white" stroke-width="2"/>
<path d="M24 39.5C17.5488 39.5 11.7521 37.7006 7.59597 34.8432C3.43537 31.9828 0.999999 28.1322 0.999999 24C0.999999 19.8678 3.43537 16.0172 7.59597 13.1568C11.7521 10.2994 17.5488 8.5 24 8.5C30.4512 8.5 36.2479 10.2994 40.404 13.1568C44.5646 16.0172 47 19.8678 47 24C47 28.1322 44.5646 31.9828 40.404 34.8432C36.2479 37.7006 30.4512 39.5 24 39.5Z" stroke="white" stroke-width="2"/>
<path d="M24 30.5C17.445 30.5 11.5502 29.6684 7.32771 28.3488C5.2105 27.6872 3.56989 26.9201 2.48027 26.115C1.37109 25.2955 1 24.5693 1 24C1 23.4307 1.37109 22.7045 2.48027 21.885C3.56989 21.0799 5.2105 20.3128 7.32771 19.6512C11.5502 18.3316 17.445 17.5 24 17.5C30.555 17.5 36.4498 18.3316 40.6723 19.6512C42.7895 20.3128 44.4301 21.0799 45.5197 21.885C46.6289 22.7045 47 23.4307 47 24C47 24.5693 46.6289 25.2955 45.5197 26.115C44.4301 26.9201 42.7895 27.6872 40.6723 28.3488C36.4498 29.6684 30.555 30.5 24 30.5Z" stroke="white" stroke-width="2"/>
</svg>
