<svg width="24" height="24" viewBox="0 0 24 24" fill="none" xmlns="http://www.w3.org/2000/svg">
<circle cx="12" cy="12" r="11.5" stroke="white"/>
<path d="M19.75 12C19.75 15.2256 18.8503 18.1239 17.4216 20.202C15.9914 22.2823 14.0661 23.5 12 23.5C9.93388 23.5 8.00859 22.2823 6.57839 20.202C5.14971 18.1239 4.25 15.2256 4.25 12C4.25 8.77439 5.14971 5.87607 6.57839 3.79798C8.00859 1.71768 9.93388 0.5 12 0.5C14.0661 0.5 15.9914 1.71768 17.4216 3.79798C18.8503 5.87607 19.75 8.77439 19.75 12Z" stroke="white"/>
<path d="M15.25 12C15.25 15.2775 14.8342 18.2249 14.1744 20.3361C13.8436 21.3947 13.46 22.2151 13.0575 22.7599C12.6478 23.3145 12.2846 23.5 12 23.5C11.7154 23.5 11.3522 23.3145 10.9425 22.7599C10.54 22.2151 10.1564 21.3947 9.82559 20.3361C9.16582 18.2249 8.75 15.2775 8.75 12C8.75 8.72248 9.16582 5.77511 9.82559 3.66386C10.1564 2.60525 10.54 1.78495 10.9425 1.24014C11.3522 0.685545 11.7154 0.5 12 0.5C12.2846 0.5 12.6478 0.685545 13.0575 1.24014C13.46 1.78495 13.8436 2.60525 14.1744 3.66386C14.8342 5.77511 15.25 8.72248 15.25 12Z" stroke="white"/>
<circle cx="12" cy="12" r="11.5" transform="rotate(90 12 12)" stroke="white"/>
<path d="M12 19.75C8.77439 19.75 5.87607 18.8503 3.79798 17.4216C1.71769 15.9914 0.5 14.0661 0.5 12C0.5 9.93388 1.71769 8.00859 3.79798 6.57839C5.87607 5.14971 8.77439 4.25 12 4.25C15.2256 4.25 18.1239 5.14971 20.202 6.57839C22.2823 8.00859 23.5 9.93388 23.5 12C23.5 14.0661 22.2823 15.9914 20.202 17.4216C18.1239 18.8503 15.2256 19.75 12 19.75Z" stroke="white"/>
<path d="M12 15.25C8.72248 15.25 5.77511 14.8342 3.66386 14.1744C2.60525 13.8436 1.78494 13.46 1.24014 13.0575C0.685545 12.6478 0.5 12.2846 0.5 12C0.5 11.7154 0.685545 11.3522 1.24014 10.9425C1.78494 10.54 2.60525 10.1564 3.66386 9.82559C5.77511 9.16582 8.72248 8.75 12 8.75C15.2775 8.75 18.2249 9.16582 20.3361 9.82559C21.3947 10.1564 22.2151 10.54 22.7599 10.9425C23.3145 11.3522 23.5 11.7154 23.5 12C23.5 12.2846 23.3145 12.6478 22.7599 13.0575C22.2151 13.46 21.3947 13.8436 20.3361 14.1744C18.2249 14.8342 15.2775 15.25 12 15.25Z" stroke="white"/>
</svg>
